<mxfile host="app.diagrams.net" modified="2022-02-25T01:16:45.941Z" agent="5.0 (Linux; Android 11; Infinix X658E) AppleWebKit/537.36 (KHTML, like Gecko) Chrome/87.0.4280.141 Mobile Safari/537.36" etag="6r0Oh25E-cX5tXfkKQa0" version="16.6.4" type="github">
  <diagram id="L-8qPLd9cX-huV-8SoJH" name="Page-1">
    <mxGraphModel dx="326" dy="1024" grid="0" gridSize="10" guides="1" tooltips="1" connect="1" arrows="1" fold="1" page="0" pageScale="1" pageWidth="850" pageHeight="1100" math="0" shadow="0">
      <root>
        <mxCell id="0" />
        <mxCell id="1" parent="0" />
        <mxCell id="ILadDvDq9ua6C_GO5A7h-3" style="edgeStyle=none;curved=1;rounded=0;orthogonalLoop=1;jettySize=auto;html=1;endArrow=open;startSize=14;endSize=14;sourcePerimeterSpacing=8;targetPerimeterSpacing=8;" edge="1" parent="1" source="ILadDvDq9ua6C_GO5A7h-1" target="ILadDvDq9ua6C_GO5A7h-2">
          <mxGeometry relative="1" as="geometry" />
        </mxCell>
        <mxCell id="ILadDvDq9ua6C_GO5A7h-1" value="" style="shape=note;whiteSpace=wrap;html=1;backgroundOutline=1;fontColor=#000000;darkOpacity=0.05;fillColor=#FFF9B2;strokeColor=none;fillStyle=solid;direction=west;gradientDirection=north;gradientColor=#FFF2A1;shadow=1;size=20;pointerEvents=1;hachureGap=4;" vertex="1" parent="1">
          <mxGeometry x="103" y="181" width="140" height="160" as="geometry" />
        </mxCell>
        <mxCell id="ILadDvDq9ua6C_GO5A7h-2" value="" style="shape=note;whiteSpace=wrap;html=1;backgroundOutline=1;fontColor=#000000;darkOpacity=0.05;fillColor=#FFF9B2;strokeColor=none;fillStyle=solid;direction=west;gradientDirection=north;gradientColor=#FFF2A1;shadow=1;size=20;pointerEvents=1;hachureGap=4;" vertex="1" parent="1">
          <mxGeometry x="80" y="-16" width="140" height="160" as="geometry" />
        </mxCell>
        <mxCell id="ILadDvDq9ua6C_GO5A7h-4" value="" style="shape=note;whiteSpace=wrap;html=1;backgroundOutline=1;fontColor=#000000;darkOpacity=0.05;fillColor=#FFF9B2;strokeColor=none;fillStyle=solid;direction=west;gradientDirection=north;gradientColor=#FFF2A1;shadow=1;size=20;pointerEvents=1;hachureGap=4;" vertex="1" parent="1">
          <mxGeometry x="227" y="-16" width="140" height="160" as="geometry" />
        </mxCell>
        <mxCell id="ILadDvDq9ua6C_GO5A7h-5" value="" style="ellipse;whiteSpace=wrap;html=1;hachureGap=4;" vertex="1" parent="1">
          <mxGeometry x="123" y="-14" width="67" height="51" as="geometry" />
        </mxCell>
        <object label="" id="ILadDvDq9ua6C_GO5A7h-9">
          <mxCell style="rounded=0;whiteSpace=wrap;html=1;hachureGap=4;" vertex="1" parent="1">
            <mxGeometry x="104" y="37" width="105" height="26" as="geometry" />
          </mxCell>
        </object>
      </root>
    </mxGraphModel>
  </diagram>
</mxfile>
